<svg width="1502" height="254" viewBox="0 0 1502 254" fill="none" xmlns="http://www.w3.org/2000/svg">
<path d="M1373.7 251.13V42.5786H1297.19V2.41309H1502V42.5786H1425.87V251.13H1373.7Z" fill="white"/>
<path d="M1111.09 251.13V2.41309H1286.15V42.9648H1163.26V106.689H1271.85V146.854H1163.26V251.13H1111.09Z" fill="white"/>
<path d="M686.766 251.13V2.41309H738.936V210.965H861.438V251.13H686.766Z" fill="white"/>
<path d="M536.938 251.13V42.5786H460.422V2.41309H665.237V42.5786H589.108V251.13H536.938Z" fill="white"/>
<path d="M258.172 251.131V2.41357H377.583C406.18 2.41357 427.177 10.009 440.574 25.1998C453.97 40.1331 460.669 60.3446 460.669 85.8343C460.669 102.57 456.289 116.988 447.53 129.089C439.028 141.191 426.919 149.945 411.204 155.352C415.326 158.699 418.546 162.303 420.865 166.165C423.441 170.027 426.017 175.177 428.594 181.614L458.736 251.131H404.634L375.264 184.317C372.688 178.653 369.854 174.662 366.763 172.345C363.671 170.027 358.519 168.869 351.305 168.869H310.342V251.131H258.172ZM310.342 125.614H364.058C377.712 125.614 388.404 122.653 396.132 116.731C403.861 110.552 407.726 100.253 407.726 85.8343C407.726 71.9308 404.377 61.7607 397.678 55.3239C390.98 48.8872 380.803 45.6688 367.149 45.6688H310.342V125.614Z" fill="white"/>
<path d="M0 251.131L95.0653 2.41357H152.259L246.938 251.131H192.836L169.263 191.269H77.6753L54.4886 251.131H0ZM85.4042 151.103H161.534L123.276 51.0757L85.4042 151.103Z" fill="white"/>
<path d="M979.09 254C898.452 254 858.133 212.083 858.133 128.25C858.133 83.148 868.309 50.532 888.662 30.4018C909.015 10.2716 939.157 0.206543 979.09 0.206543C1019.02 0.206543 1049.17 10.2716 1069.52 30.4018C1089.87 50.532 1100.05 83.148 1100.05 128.25C1100.05 212.083 1059.73 254 979.09 254ZM979.09 210.045C1002.53 210.045 1019.67 203.419 1030.49 190.169C1041.56 176.664 1047.1 156.024 1047.1 128.25C1047.1 97.4175 1041.56 75.7584 1030.49 63.2726C1019.67 50.532 1002.53 44.1617 979.09 44.1617C955.646 44.1617 938.384 50.532 927.306 63.2726C916.486 75.7584 911.076 97.4175 911.076 128.25C911.076 156.024 916.486 176.664 927.306 190.169C938.384 203.419 955.646 210.045 979.09 210.045Z" fill="white"/>
</svg>
